<svg xmlns="http://www.w3.org/2000/svg" version="1.1" xmlns:xlink="http://www.w3.org/1999/xlink" width="2000" height="1500" viewBox="0 0 2000 1500"><rect width="2000" height="1500" x="0" y="0" id="background" stroke="transparent" fill="#111111"></rect><svg xml:space="preserve" width="1500" height="1125" data-version="2" data-id="lg_yGxKBcsFSkKJ9lDPdM" viewBox="0 0 575 255" x="250" y="187.5"><rect width="100%" height="100%" fill="transparent"></rect><path fill="#fff" d="M273.02 247.474q-6.6 0-11.74-2.25-5.14-2.25-8.7-6.19-3.56-3.93-5.4-9-1.84-5.06-1.84-10.76 0-6.22 2.07-11.4 2.06-5.17 5.81-8.96 3.75-3.79 8.92-5.89 5.18-2.1 11.4-2.1 4.05 0 7.2.83 3.15.82 5.18 1.83 2.02 1.02 2.55 1.62l-3.68 7.5q-2.02-1.8-4.98-2.93-2.97-1.12-6.94-1.12-5.18 0-9.34 2.55t-6.6 7.2q-2.44 4.65-2.44 11.02 0 5.63 2.1 10.24t6.19 7.39q4.09 2.77 9.94 2.77 3.22 0 6.34-.86 3.11-.86 6.41-2.89l2.47 7.13q-.97.9-3.3 1.91-2.32 1.01-5.36 1.69-3.04.67-6.26.67"></path><rect width="43.13" height="56.55" x="-21.57" y="-28.27" fill="none" rx="0" ry="0" transform="translate(267.4 219.7)"></rect><path fill="#fff" d="M297.32 246.954v-55.13h8.4v55.13Z"></path><rect width="8.4" height="55.13" x="-4.2" y="-27.57" fill="none" rx="0" ry="0" transform="translate(302.02 219.89)"></rect><path fill="#fff" d="m357.39 246.954-32.25-35.7.23 6v29.7h-8.4v-55.2h1.05l32.4 36.15-.3-6.3v-29.78h8.4v55.13Z"></path><rect width="41.55" height="55.2" x="-20.77" y="-27.6" fill="none" rx="0" ry="0" transform="translate(338.25 219.85)"></rect><path fill="#fff" d="M369.39 246.954v-55.13h24.15v7.35h-15.82v15.23h12.75v7.5h-12.75v17.62h18.3v7.43Z"></path><rect width="26.63" height="55.13" x="-13.31" y="-27.57" fill="none" rx="0" ry="0" transform="translate(383.2 219.89)"></rect><path fill="#fff" d="M404.49 246.954v-55.13h12.15q7.2 0 11.55 2.1 4.35 2.1 6.3 5.81 1.95 3.72 1.95 8.52 0 8.77-5.1 13.53-5.1 4.77-15.45 4.77h-2.92v20.4Zm8.48-27.83h3.15q4.95 0 7.5-1.57 2.55-1.58 3.45-3.9.9-2.33.9-4.5 0-2.63-.98-4.88-.97-2.25-3.37-3.67-2.4-1.43-6.75-1.43h-3.9Z"></path><rect width="31.95" height="55.13" x="-15.97" y="-27.57" fill="none" rx="0" ry="0" transform="translate(420.96 219.89)"></rect><path fill="#fff" d="M444.17 246.954v-55.13h8.4v22.5h19.42v-22.5h8.4v55.13h-8.4v-25.58h-19.42v25.58Z"></path><rect width="36.22" height="55.13" x="-18.11" y="-27.57" fill="none" rx="0" ry="0" transform="translate(462.78 219.89)"></rect><path fill="#fff" d="M491.64 246.954v-55.13h8.4v55.13Z"></path><rect width="8.4" height="55.13" x="-4.2" y="-27.57" fill="none" rx="0" ry="0" transform="translate(496.34 219.89)"></rect><path fill="#fff" d="M511.29 246.954v-55.13h8.48v47.63h15.82v7.5Z"></path><rect width="24.3" height="55.13" x="-12.15" y="-27.57" fill="none" rx="0" ry="0" transform="translate(523.94 219.89)"></rect><path fill="#fff" d="M541.97 246.954v-55.13h24.15v7.35h-15.83v15.23h12.75v7.5h-12.75v17.62h18.3v7.43Z"></path><rect width="26.62" height="55.13" x="-13.31" y="-27.57" fill="none" rx="0" ry="0" transform="translate(555.78 219.89)"></rect><path fill="#fff" d="M130.382 2.53C61.44 2.53 5.412 58.558 5.412 127.5c0 68.525 55.195 124.137 123.512 124.97H252.44c3.958 0 3.958-5.623 0-5.623h-85.188c51.026-15.622 88.104-63.11 88.104-119.347 0-68.942-56.028-124.97-124.974-124.97m0 5.623c66.03 0 119.35 53.321 119.35 119.347s-53.32 119.347-119.35 119.347c-66.026 0-119.347-53.321-119.347-119.347S64.356 8.153 130.382 8.153m0 12.706c-58.944 0-106.641 47.697-106.641 106.641s47.697 106.641 106.641 106.641c58.945 0 106.645-47.693 106.645-106.641 0-58.944-47.697-106.641-106.645-106.641m0 5.623c55.824 0 101.021 45.198 101.021 101.018s-45.197 101.018-101.02 101.018c-55.82 0-101.019-45.198-101.019-101.018S74.566 26.482 130.382 26.482m0 9.79c-17.287 0-31.242 13.955-31.242 31.242s13.955 31.243 31.242 31.243 31.246-13.955 31.246-31.243-13.955-31.242-31.246-31.242m0 5.415a25.688 25.688 0 0 1 25.827 25.827c0 14.164-11.455 25.827-25.827 25.827-14.371 0-25.827-11.663-25.827-25.827 0-14.371 11.46-25.827 25.827-25.827m-59.986 54.57c-17.287 0-31.242 13.955-31.242 31.243s13.955 31.243 31.242 31.243 31.243-13.955 31.243-31.243-13.955-31.243-31.243-31.243m119.972 0c-17.284 0-31.243 13.955-31.243 31.243s13.959 31.243 31.243 31.243c17.288 0 31.243-13.955 31.243-31.243s-13.952-31.243-31.243-31.243m-119.972 5.416c14.164 0 25.828 11.455 25.828 25.827 0 14.372-11.664 25.827-25.828 25.827A25.692 25.692 0 0 1 44.57 127.5a25.688 25.688 0 0 1 25.827-25.827m119.972 0a25.688 25.688 0 0 1 25.827 25.827 25.688 25.688 0 0 1-25.827 25.827c-14.163 0-25.824-11.459-25.824-25.827 0-14.372 11.66-25.827 25.824-25.827m-59.986 54.57c-17.287 0-31.242 13.955-31.242 31.243 0 17.284 13.955 31.242 31.242 31.242a31.208 31.208 0 0 0 31.246-31.242c0-17.288-13.955-31.243-31.246-31.243m0 5.416c14.375 0 25.827 11.663 25.827 25.827a25.688 25.688 0 0 1-25.827 25.824 25.688 25.688 0 0 1-25.827-25.824c0-14.164 11.46-25.827 25.827-25.827m188.115 1.261c-.296-.89-1.087-1.581-1.977-1.68l-6.623-.989-2.965-5.93c-.396-.89-1.285-1.385-2.175-1.385-.89 0-1.78.494-2.175 1.384l-2.965 5.931-6.623.989c-.89.098-1.68.79-1.977 1.68-.297.89 0 1.878.593 2.57l4.745 4.646-1.087 6.524c-.198.89.197 1.878.988 2.373.79.593 1.78.593 2.57.197l5.931-3.064 5.931 3.064c.395.198.79.297 1.186.297.495 0 .989-.198 1.483-.494.79-.593 1.186-1.483.989-2.373l-1.088-6.524 4.745-4.646c.593-.692.79-1.68.494-2.57m30.05 0c-.296-.89-1.087-1.581-1.976-1.68l-6.623-.989-2.966-5.93c-.395-.89-1.285-1.385-2.174-1.385-.89 0-1.78.494-2.175 1.384l-2.966 5.931-6.623.989c-.89.098-1.68.79-1.977 1.68-.296.89 0 1.878.593 2.57l4.745 4.646-1.087 6.524c-.198.89.198 1.878.988 2.373.791.593 1.78.593 2.57.197l5.932-3.064 5.93 3.064c.396.198.791.297 1.187.297.494 0 .988-.198 1.482-.494.791-.593 1.187-1.483.989-2.373l-1.087-6.524 4.744-4.646c.495-.692.791-1.68.495-2.57m-9.785 4.547c-.594.593-.89 1.384-.692 2.175l.494 2.867-2.67-1.286a2.327 2.327 0 0 0-2.273 0l-2.57 1.384.494-2.866c.1-.791-.098-1.582-.691-2.175l-2.076-2.076 2.866-.395c.791-.1 1.483-.593 1.878-1.384l1.286-2.67 1.285 2.67c.395.692 1.087 1.186 1.878 1.384l2.866.395zm-62.968-13.147c-.395-.89-1.285-1.384-2.175-1.384-.89 0-1.779.494-2.174 1.384l-2.966 5.931-6.623.989c-.89.099-1.68.79-1.977 1.68-.296.89 0 1.878.593 2.57l4.745 4.646-1.087 6.524c-.198.89.197 1.878.988 2.373a2.67 2.67 0 0 0 1.483.494c.395 0 .79-.099 1.186-.297l5.931-3.064 5.931 3.064c.791.396 1.878.396 2.57-.197.791-.593 1.186-1.483.989-2.373l-1.088-6.524 4.745-4.646a2.49 2.49 0 0 0 .593-2.57c-.296-.89-1.087-1.581-1.977-1.68l-6.623-.989z"></path></svg></svg>