<svg xmlns="http://www.w3.org/2000/svg" version="1.1" xmlns:xlink="http://www.w3.org/1999/xlink" width="1500" height="1500" viewBox="0 0 1500 1500"><rect width="1500" height="1500" x="0" y="0" id="background" stroke="transparent" fill="#111111"></rect><svg xml:space="preserve" width="1000" height="1000" data-version="2" data-id="lg_5CwoBq0HhfbaAGonKP" viewBox="0 0 774 697" x="250" y="250"><rect width="100%" height="100%" fill="transparent"></rect><path fill="#fff" d="M391.207 689.118q-8.36 0-14.87-2.85t-11.02-7.84q-4.51-4.99-6.84-11.4t-2.33-13.63q0-7.89 2.62-14.44 2.61-6.56 7.36-11.36 4.75-4.79 11.3-7.45 6.56-2.66 14.44-2.66 5.13 0 9.12 1.04 3.99 1.05 6.56 2.33 2.56 1.28 3.23 2.04l-4.66 9.5q-2.56-2.28-6.31-3.7-3.76-1.43-8.79-1.43-6.56 0-11.83 3.23-5.27 3.23-8.36 9.12-3.09 5.89-3.09 13.97 0 7.12 2.66 12.96 2.66 5.85 7.84 9.36 5.18 3.52 12.59 3.52 4.08 0 8.03-1.1 3.94-1.09 8.12-3.65l3.13 9.02q-1.23 1.14-4.18 2.42-2.94 1.29-6.79 2.14-3.85.86-7.93.86"></path><rect width="54.63" height="71.63" x="-27.32" y="-35.81" fill="none" rx="0" ry="0" transform="translate(383.96 653.8)"></rect><path fill="#fff" d="M421.987 688.448v-69.82h10.64v69.82Z"></path><rect width="10.64" height="69.82" x="-5.32" y="-34.91" fill="none" rx="0" ry="0" transform="translate(427.8 654.04)"></rect><path fill="#fff" d="m498.077 688.448-40.85-45.22.29 7.6v37.62h-10.64v-69.92h1.33l41.04 45.79-.38-7.98v-37.71h10.64v69.82Z"></path><rect width="52.63" height="69.92" x="-26.32" y="-34.96" fill="none" rx="0" ry="0" transform="translate(473.7 653.99)"></rect><path fill="#fff" d="M513.277 688.448v-69.82h30.59v9.31h-20.04v19.28h16.15v9.5h-16.15v22.33h23.18v9.4Z"></path><rect width="33.73" height="69.82" x="-16.86" y="-34.91" fill="none" rx="0" ry="0" transform="translate(530.64 654.04)"></rect><path fill="#fff" d="M557.737 688.448v-69.82h15.39q9.12 0 14.63 2.66 5.51 2.66 7.98 7.36 2.47 4.7 2.47 10.78 0 11.12-6.46 17.15-6.46 6.03-19.57 6.03h-3.7v25.84Zm10.74-35.24h3.99q6.27 0 9.5-2 3.23-1.99 4.37-4.94 1.14-2.94 1.14-5.7 0-3.32-1.24-6.17-1.23-2.85-4.27-4.66-3.04-1.8-8.55-1.8h-4.94Z"></path><rect width="40.47" height="69.82" x="-20.23" y="-34.91" fill="none" rx="0" ry="0" transform="translate(578.47 654.04)"></rect><path fill="#fff" d="M607.997 688.448v-69.82h10.64v28.5h24.6v-28.5h10.64v69.82h-10.64v-32.39h-24.6v32.39Z"></path><rect width="45.88" height="69.82" x="-22.94" y="-34.91" fill="none" rx="0" ry="0" transform="translate(631.44 654.04)"></rect><path fill="#fff" d="M668.127 688.448v-69.82h10.64v69.82Z"></path><rect width="10.64" height="69.82" x="-5.32" y="-34.91" fill="none" rx="0" ry="0" transform="translate(673.95 654.04)"></rect><path fill="#fff" d="M693.017 688.448v-69.82h10.74v60.32h20.04v9.5Z"></path><rect width="30.78" height="69.82" x="-15.39" y="-34.91" fill="none" rx="0" ry="0" transform="translate(708.9 654.04)"></rect><path fill="#fff" d="M731.877 688.448v-69.82h30.59v9.31h-20.05v19.28h16.15v9.5h-16.15v22.33h23.18v9.4Z"></path><rect width="33.72" height="69.82" x="-16.86" y="-34.91" fill="none" rx="0" ry="0" transform="translate(749.24 654.04)"></rect><path fill="#fff" d="M306.178 6.881c-164.824 0-298.775 133.95-298.775 298.775 0 163.828 131.959 296.783 295.289 298.775h295.297c9.461 0 9.461-13.445 0-13.445H394.324c121.992-37.347 210.637-150.881 210.637-285.33 0-164.824-133.951-298.775-298.783-298.775m0 13.445c157.86 0 285.338 127.477 285.338 285.33 0 157.853-127.477 285.33-285.338 285.33-157.853 0-285.33-127.477-285.33-285.33 0-157.853 127.477-285.33 285.33-285.33m0 30.376c-140.923 0-254.955 114.032-254.955 254.954 0 140.922 114.032 254.954 254.955 254.954 140.922 0 254.962-114.024 254.962-254.954 0-140.922-114.032-254.954-254.962-254.954m0 13.444c133.46 0 241.518 108.057 241.518 241.51 0 133.453-108.057 241.51-241.518 241.51-133.453 0-241.51-108.057-241.51-241.51 0-133.453 108.065-241.51 241.51-241.51m0 23.404c-41.33 0-74.694 33.364-74.694 74.694s33.363 74.694 74.694 74.694 74.702-33.363 74.702-74.694-33.364-74.694-74.702-74.694m0 12.947a61.415 61.415 0 0 1 61.746 61.747c0 33.861-27.387 61.747-61.746 61.747-34.36 0-61.747-27.886-61.747-61.747 0-34.359 27.396-61.747 61.747-61.747M162.766 230.962c-41.33 0-74.694 33.363-74.694 74.694s33.363 74.694 74.694 74.694 74.693-33.363 74.693-74.694-33.363-74.694-74.693-74.694m286.824 0c-41.323 0-74.694 33.363-74.694 74.694s33.371 74.694 74.694 74.694c41.33 0 74.693-33.363 74.693-74.694s-33.355-74.694-74.693-74.694M162.766 243.91c33.86 0 61.746 27.388 61.746 61.747 0 34.36-27.885 61.747-61.746 61.747a61.423 61.423 0 0 1-61.747-61.747 61.415 61.415 0 0 1 61.747-61.747m286.824 0a61.415 61.415 0 0 1 61.746 61.747 61.415 61.415 0 0 1-61.746 61.747c-33.862 0-61.739-27.396-61.739-61.747 0-34.36 27.877-61.747 61.739-61.747M306.178 374.374c-41.33 0-74.694 33.363-74.694 74.694 0 41.322 33.363 74.694 74.694 74.694a74.61 74.61 0 0 0 74.702-74.694c0-41.33-33.364-74.694-74.702-74.694m0 12.947c34.367 0 61.746 27.886 61.746 61.747a61.415 61.415 0 0 1-61.746 61.738 61.415 61.415 0 0 1-61.747-61.738c0-33.861 27.396-61.747 61.747-61.747"></path><path fill="#fff" d="M628.605 544.717c-.648-1.945-2.377-3.457-4.322-3.674l-14.48-2.16-6.483-12.967c-.864-1.945-2.81-3.026-4.754-3.026-1.945 0-3.89 1.08-4.755 3.026l-6.483 12.966-14.48 2.161c-1.944.217-3.673 1.73-4.322 3.674-.648 1.945 0 4.106 1.297 5.62l10.373 10.156-2.377 14.264c-.432 1.945.432 4.106 2.161 5.186 1.73 1.297 3.89 1.297 5.62.432l12.966-6.699 12.966 6.7c.865.432 1.73.648 2.594.648 1.08 0 2.16-.432 3.241-1.08 1.73-1.297 2.594-3.242 2.161-5.187l-2.377-14.264 10.373-10.157c1.297-1.513 1.73-3.674 1.081-5.619m65.697 0c-.648-1.945-2.377-3.457-4.322-3.674l-14.48-2.16-6.482-12.967c-.865-1.945-2.81-3.026-4.755-3.026-1.945 0-3.89 1.08-4.754 3.026l-6.484 12.966-14.479 2.161c-1.945.217-3.674 1.73-4.322 3.674-.649 1.945 0 4.106 1.296 5.62l10.374 10.156-2.377 14.264c-.433 1.945.432 4.106 2.16 5.186 1.73 1.297 3.89 1.297 5.62.432l12.966-6.699 12.967 6.7c.864.432 1.729.648 2.593.648 1.08 0 2.161-.432 3.242-1.08 1.729-1.297 2.593-3.242 2.16-5.187l-2.376-14.264 10.373-10.157c1.08-1.513 1.729-3.674 1.08-5.619m-21.394 9.941c-1.297 1.297-1.945 3.026-1.513 4.755l1.08 6.267-5.835-2.81a5.088 5.088 0 0 0-4.97 0l-5.62 3.026 1.081-6.267c.217-1.729-.216-3.458-1.512-4.755l-4.539-4.538 6.268-.864c1.728-.216 3.241-1.297 4.106-3.026l2.81-5.835 2.809 5.835c.864 1.513 2.377 2.593 4.106 3.026l6.267.864zm-137.663-28.742c-.864-1.945-2.809-3.026-4.754-3.026-1.945 0-3.89 1.08-4.754 3.026l-6.484 12.966-14.48 2.161c-1.944.217-3.673 1.73-4.321 3.674-.649 1.945 0 4.106 1.296 5.62l10.374 10.156-2.378 14.264c-.432 1.945.433 4.106 2.162 5.186.864.649 2.16 1.08 3.241 1.08.865 0 1.73-.215 2.594-.648l12.966-6.699 12.967 6.7c1.729.864 4.106.864 5.619-.433 1.728-1.296 2.593-3.241 2.16-5.186l-2.377-14.264 10.374-10.157c1.513-1.513 1.945-3.674 1.296-5.619-.648-1.945-2.377-3.457-4.322-3.674l-14.48-2.16z"></path></svg></svg>